<svg width="70" height="5" viewBox="0 0 70 5" fill="none" xmlns="http://www.w3.org/2000/svg">
<path d="M0 0.330754H0.852878V3.32109H2.70078V4.01603H0V0.330754Z" fill="white"/>
<path d="M8.26752 3.22633H6.5565L6.23009 4.01603H5.35615L6.99873 0.330754H7.84108L9.48893 4.01603H8.59393L8.26752 3.22633ZM7.99902 2.57877L7.41464 1.16784L6.83026 2.57877H7.99902Z" fill="white"/>
<path d="M17.8731 0.330754L16.6675 4.01603H15.7515L14.9407 1.52057L14.1036 4.01603H13.1928L11.982 0.330754H12.8664L13.6982 2.92098L14.5669 0.330754H15.3566L16.199 2.94204L17.0571 0.330754H17.8731Z" fill="white"/>
<path d="M26.9457 4.07921C26.5702 4.07921 26.2297 3.99848 25.9244 3.83703C25.6225 3.67207 25.3838 3.44569 25.2084 3.15789C25.0364 2.86658 24.9504 2.53841 24.9504 2.17339C24.9504 1.80838 25.0364 1.48196 25.2084 1.19416C25.3838 0.90285 25.6225 0.676469 25.9244 0.515018C26.2297 0.350058 26.5719 0.267578 26.951 0.267578C27.2704 0.267578 27.5582 0.323735 27.8144 0.436048C28.0741 0.548361 28.2917 0.709811 28.4672 0.920399L27.9197 1.42581C27.6705 1.13801 27.3616 0.994105 26.9931 0.994105C26.7649 0.994105 26.5614 1.045 26.3824 1.14678C26.2034 1.24505 26.063 1.38369 25.9612 1.56269C25.8629 1.74169 25.8138 1.94526 25.8138 2.17339C25.8138 2.40153 25.8629 2.6051 25.9612 2.7841C26.063 2.9631 26.2034 3.10349 26.3824 3.20527C26.5614 3.30355 26.7649 3.35268 26.9931 3.35268C27.3616 3.35268 27.6705 3.20703 27.9197 2.91571L28.4672 3.42112C28.2917 3.63522 28.0741 3.79843 27.8144 3.91074C27.5547 4.02305 27.2651 4.07921 26.9457 4.07921Z" fill="white"/>
<path d="M33.3831 4.07921C33.0005 4.07921 32.6548 3.99673 32.3459 3.83177C32.0406 3.66681 31.8002 3.44043 31.6247 3.15262C31.4527 2.86131 31.3667 2.5349 31.3667 2.17339C31.3667 1.81189 31.4527 1.48723 31.6247 1.19943C31.8002 0.908114 32.0406 0.679978 32.3459 0.515018C32.6548 0.350058 33.0005 0.267578 33.3831 0.267578C33.7657 0.267578 34.1096 0.350058 34.415 0.515018C34.7203 0.679978 34.9607 0.908114 35.1362 1.19943C35.3117 1.48723 35.3995 1.81189 35.3995 2.17339C35.3995 2.5349 35.3117 2.86131 35.1362 3.15262C34.9607 3.44043 34.7203 3.66681 34.415 3.83177C34.1096 3.99673 33.7657 4.07921 33.3831 4.07921ZM33.3831 3.35268C33.6007 3.35268 33.7972 3.30355 33.9727 3.20527C34.1482 3.10349 34.2851 2.9631 34.3834 2.7841C34.4852 2.6051 34.5361 2.40153 34.5361 2.17339C34.5361 1.94526 34.4852 1.74169 34.3834 1.56269C34.2851 1.38369 34.1482 1.24505 33.9727 1.14678C33.7972 1.045 33.6007 0.994105 33.3831 0.994105C33.1655 0.994105 32.9689 1.045 32.7934 1.14678C32.618 1.24505 32.4793 1.38369 32.3775 1.56269C32.2793 1.74169 32.2301 1.94526 32.2301 2.17339C32.2301 2.40153 32.2793 2.6051 32.3775 2.7841C32.4793 2.9631 32.618 3.10349 32.7934 3.20527C32.9689 3.30355 33.1655 3.35268 33.3831 3.35268Z" fill="white"/>
<path d="M42.0264 4.01603L42.0211 1.80487L40.9366 3.62645H40.5523L39.473 1.85225V4.01603H38.6728V0.330754H39.3782L40.7576 2.62089L42.1159 0.330754H42.8161L42.8266 4.01603H42.0264Z" fill="white"/>
<path d="M47.9285 0.330754C48.2549 0.330754 48.5374 0.385156 48.7761 0.493959C49.0183 0.602763 49.2043 0.757194 49.3342 0.957251C49.464 1.15731 49.529 1.39422 49.529 1.66798C49.529 1.93824 49.464 2.17515 49.3342 2.37872C49.2043 2.57877 49.0183 2.7332 48.7761 2.84201C48.5374 2.9473 48.2549 2.99995 47.9285 2.99995H47.1862V4.01603H46.3333V0.330754H47.9285ZM47.8811 2.30501C48.1373 2.30501 48.3321 2.25061 48.4655 2.14181C48.5989 2.02949 48.6656 1.87155 48.6656 1.66798C48.6656 1.46091 48.5989 1.30297 48.4655 1.19416C48.3321 1.08185 48.1373 1.02569 47.8811 1.02569H47.1862V2.30501H47.8811Z" fill="white"/>
<path d="M55.0121 3.22633H53.3011L52.9747 4.01603H52.1008L53.7433 0.330754H54.5857L56.2335 4.01603H55.3385L55.0121 3.22633ZM54.7436 2.57877L54.1592 1.16784L53.5749 2.57877H54.7436Z" fill="white"/>
<path d="M62.6281 0.330754V4.01603H61.9279L60.0906 1.77854V4.01603H59.2482V0.330754H59.9537L61.7858 2.56824V0.330754H62.6281Z" fill="white"/>
<path d="M67.9013 2.71039V4.01603H67.0485V2.69986L65.6217 0.330754H66.5273L67.5117 1.96807L68.4963 0.330754H69.3333L67.9013 2.71039Z" fill="white"/>
</svg>
