<svg width="56" height="25" viewBox="0 0 56 25" fill="none" xmlns="http://www.w3.org/2000/svg">
<path d="M3.58561 0H0.860352V19.0767H3.58561V0Z" fill="#323264"/>
<path d="M19.6598 13.4896L19.796 12.127C19.796 10.3011 19.1965 8.77493 17.9701 7.54857C16.7438 6.32221 15.2176 5.72266 13.3917 5.72266C11.5658 5.72266 9.98514 6.37672 8.67702 7.68483C7.3689 8.99295 6.71484 10.5463 6.71484 12.3995C6.71484 14.3072 7.39616 15.9423 8.73153 17.305C10.0669 18.6676 11.6748 19.3489 13.528 19.3489C14.2365 19.3489 14.8906 19.2399 15.5446 19.0491C16.1987 18.8311 16.7438 18.6131 17.1253 18.3951C17.5341 18.1498 17.9429 17.8773 18.2971 17.5775C18.6514 17.2777 18.8967 17.0597 19.0057 16.9234C19.1147 16.7872 19.1965 16.7054 19.251 16.6236L17.4796 14.8522L17.0708 15.37C16.7983 15.6971 16.335 16.0241 15.6809 16.3784C14.9996 16.7327 14.291 16.8962 13.528 16.8962C12.4651 16.8962 11.5658 16.5691 10.8027 15.8878C10.0396 15.2065 9.57635 14.4162 9.44009 13.4896H19.6598ZM13.3917 8.03912C14.4 8.03912 15.2176 8.33889 15.8989 8.9112C16.553 9.51075 16.9618 10.2466 17.1253 11.1732H9.5491C9.79437 10.2466 10.2304 9.51075 10.9117 8.9112C11.5658 8.33889 12.4106 8.03912 13.3917 8.03912Z" fill="#323264"/>
<path d="M32.3695 18.286C32.3695 19.4852 32.0153 20.4662 31.2794 21.2293C30.5709 21.9651 29.6715 22.3467 28.5542 22.3467C28.0637 22.3467 27.5731 22.2649 27.1098 22.1286C26.6465 21.9924 26.2922 21.8289 25.9925 21.6381C25.6927 21.4473 25.4202 21.2566 25.1476 21.0113C24.9024 20.766 24.7389 20.6025 24.6571 20.5207C24.5753 20.439 24.5208 20.3572 24.4663 20.3027L22.6949 22.0741L22.9129 22.3467C23.0492 22.5374 23.2945 22.7827 23.6215 23.0552C23.9485 23.3005 24.3301 23.573 24.7661 23.8455C25.2021 24.0908 25.7472 24.3088 26.4285 24.4996C27.1098 24.6904 27.8184 24.7994 28.5542 24.7994C30.4074 24.7994 31.9335 24.1726 33.2144 22.919C34.468 21.6381 35.0948 20.112 35.0948 18.2588V5.99518H32.3695V7.3578L31.9062 6.94902C31.6065 6.67649 31.1432 6.40397 30.4891 6.13144C29.8351 5.85892 29.1265 5.72266 28.4179 5.72266C26.7555 5.72266 25.3384 6.34946 24.112 7.63033C22.8857 8.9112 22.2861 10.4373 22.2861 12.2632C22.2861 14.0892 22.8857 15.6153 24.112 16.8962C25.3384 18.177 26.7555 18.8038 28.4179 18.8038C28.8812 18.8038 29.3173 18.7493 29.7806 18.6403C30.2166 18.5041 30.5709 18.3678 30.8707 18.2315C31.1704 18.0953 31.443 17.9318 31.6882 17.741C31.9335 17.5502 32.1243 17.414 32.1788 17.3595L32.3695 17.1687V18.286ZM25.0114 12.2632C25.0114 11.1186 25.3657 10.1648 26.1015 9.37449C26.8373 8.58417 27.7094 8.17538 28.6905 8.17538C29.6715 8.17538 30.5436 8.58417 31.2794 9.37449C31.988 10.1648 32.3695 11.1186 32.3695 12.2632C32.3695 13.4079 31.988 14.3617 31.2794 15.152C30.5436 15.9423 29.6715 16.3511 28.6905 16.3511C27.7094 16.3511 26.8373 15.9423 26.1015 15.152C25.3657 14.3617 25.0114 13.4079 25.0114 12.2632Z" fill="#323264"/>
<path d="M49.3195 19.0764V10.6281C49.3195 9.23823 48.8017 8.06637 47.7934 7.13979C46.7851 6.18595 45.4769 5.72266 43.869 5.72266C43.2422 5.72266 42.6154 5.80441 42.0159 5.96793C41.4163 6.1587 40.9258 6.34946 40.5715 6.56748C40.2172 6.7855 39.8629 7.03078 39.5359 7.33055C39.2089 7.60308 39.0181 7.79384 38.9091 7.90285C38.8273 8.01186 38.7456 8.09362 38.6911 8.17538L40.4625 9.94679L40.8168 9.4835C41.0348 9.18372 41.4163 8.9112 41.9886 8.61142C42.5609 8.31164 43.1877 8.17538 43.869 8.17538C44.6594 8.17538 45.3134 8.42065 45.8312 8.88394C46.349 9.34724 46.5943 9.94679 46.5943 10.6281L41.8251 11.4457C40.6533 11.6364 39.6994 12.0997 39.0454 12.8356C38.364 13.5714 38.0098 14.4707 38.0098 15.5335C38.0098 16.5419 38.4458 17.414 39.3179 18.177C40.2172 18.9674 41.3073 19.3489 42.6427 19.3489C43.106 19.3489 43.542 19.2944 43.9781 19.1581C44.4413 19.0491 44.7956 18.9129 45.0954 18.7766C45.3952 18.6403 45.6677 18.4768 45.913 18.286C46.1582 18.0953 46.3218 17.959 46.4308 17.9045C46.5125 17.8228 46.567 17.741 46.5943 17.7137V19.0764H49.3195ZM43.0515 16.8962C42.3429 16.8962 41.7706 16.7327 41.3618 16.4056C40.9258 16.0786 40.735 15.6971 40.735 15.261C40.735 14.7977 40.8713 14.3889 41.1711 14.0892C41.4708 13.7894 41.8796 13.5714 42.3702 13.4896L46.5943 12.8083V13.0808C46.5943 14.3072 46.2945 15.2338 45.6677 15.9151C45.0409 16.5691 44.1688 16.8962 43.0515 16.8962Z" fill="#323264"/>
<path d="M55.3337 0H52.6084V19.0767H55.3337V0Z" fill="#323264"/>
</svg>
