<svg width="103" height="47" viewBox="0 0 103 47" fill="none" xmlns="http://www.w3.org/2000/svg">
<path d="M5.97265 0H0.862793V35.7689H5.97265V0Z" fill="#323264"/>
<path d="M36.1116 25.2935L36.3671 22.7386C36.3671 19.315 35.2429 16.4535 32.9435 14.1541C30.6441 11.8546 27.7825 10.7305 24.359 10.7305C20.9354 10.7305 17.9717 11.9568 15.5189 14.4096C13.0662 16.8623 11.8398 19.7749 11.8398 23.2496C11.8398 26.8265 13.1173 29.8924 15.6211 32.4473C18.1249 35.0022 21.1398 36.2797 24.6144 36.2797C25.943 36.2797 27.1694 36.0753 28.3957 35.7176C29.6221 35.3088 30.6441 34.9 31.3594 34.4912C32.1259 34.0313 32.8924 33.5204 33.5567 32.9583C34.2209 32.3962 34.6808 31.9874 34.8852 31.7319C35.0896 31.4764 35.2429 31.3231 35.3451 31.1698L32.0237 27.8484L31.2572 28.8193C30.7463 29.4325 29.8776 30.0457 28.6512 30.7099C27.3738 31.3742 26.0452 31.6808 24.6144 31.6808C22.6216 31.6808 20.9354 31.0676 19.5046 29.7902C18.0738 28.5127 17.2052 27.0309 16.9497 25.2935H36.1116ZM24.359 15.0738C26.2496 15.0738 27.7825 15.6359 29.06 16.709C30.2864 17.8331 31.0528 19.2128 31.3594 20.9501H17.1541C17.614 19.2128 18.4315 17.8331 19.709 16.709C20.9354 15.6359 22.5194 15.0738 24.359 15.0738Z" fill="#323264"/>
<path d="M59.943 34.2868C59.943 36.5351 59.2787 38.3747 57.8991 39.8054C56.5705 41.1851 54.8843 41.9005 52.7892 41.9005C51.8695 41.9005 50.9497 41.7472 50.081 41.4917C49.2124 41.2362 48.5481 40.9296 47.986 40.5719C47.4239 40.2142 46.9129 39.8565 46.4019 39.3967C45.9421 38.9368 45.6355 38.6302 45.4822 38.4769C45.3289 38.3236 45.2267 38.1703 45.1245 38.0681L41.8031 41.3895L42.2119 41.9005C42.4674 42.2582 42.9273 42.718 43.5404 43.229C44.1536 43.6889 44.869 44.1999 45.6866 44.7109C46.5041 45.1708 47.5261 45.5796 48.8036 45.9372C50.081 46.2949 51.4096 46.4993 52.7892 46.4993C56.2639 46.4993 59.1254 45.3241 61.5271 42.9735C63.8776 40.5719 65.0528 37.7104 65.0528 34.2357V11.2415H59.943V13.7964L59.0743 13.0299C58.5123 12.5189 57.6436 12.0079 56.4172 11.4969C55.1909 10.986 53.8623 10.7305 52.5338 10.7305C49.4168 10.7305 46.7596 11.9057 44.4602 14.3074C42.1608 16.709 41.0366 19.5705 41.0366 22.9941C41.0366 26.4177 42.1608 29.2792 44.4602 31.6808C46.7596 34.0824 49.4168 35.2577 52.5338 35.2577C53.4024 35.2577 54.22 35.1555 55.0887 34.9511C55.9062 34.6956 56.5705 34.4401 57.1326 34.1846C57.6947 33.9291 58.2057 33.6225 58.6656 33.2648C59.1254 32.9072 59.4831 32.6517 59.5853 32.5495L59.943 32.1918V34.2868ZM46.1465 22.9941C46.1465 20.8479 46.8107 19.0595 48.1904 17.5777C49.57 16.0958 51.2052 15.3293 53.0447 15.3293C54.8843 15.3293 56.5194 16.0958 57.8991 17.5777C59.2276 19.0595 59.943 20.8479 59.943 22.9941C59.943 25.1402 59.2276 26.9287 57.8991 28.4105C56.5194 29.8924 54.8843 30.6588 53.0447 30.6588C51.2052 30.6588 49.57 29.8924 48.1904 28.4105C46.8107 26.9287 46.1465 25.1402 46.1465 22.9941Z" fill="#323264"/>
<path d="M91.7239 35.7687V19.9282C91.7239 17.3222 90.753 15.1249 88.8624 13.3876C86.9717 11.5991 84.519 10.7305 81.5042 10.7305C80.329 10.7305 79.1537 10.8838 78.0295 11.1904C76.9054 11.548 75.9856 11.9057 75.3213 12.3145C74.657 12.7233 73.9928 13.1832 73.3796 13.7453C72.7664 14.2563 72.4087 14.6139 72.2043 14.8183C72.051 15.0227 71.8977 15.176 71.7955 15.3293L75.1169 18.6507L75.7812 17.782C76.19 17.22 76.9054 16.709 77.9784 16.1469C79.0515 15.5848 80.2268 15.3293 81.5042 15.3293C82.9861 15.3293 84.2124 15.7892 85.1833 16.6579C86.1542 17.5266 86.6141 18.6507 86.6141 19.9282L77.6718 21.4611C75.4746 21.8188 73.6862 22.6875 72.4598 24.0672C71.1823 25.4468 70.5181 27.1331 70.5181 29.1259C70.5181 31.0165 71.3356 32.6517 72.9708 34.0824C74.657 35.5643 76.701 36.2797 79.2048 36.2797C80.0735 36.2797 80.891 36.1775 81.7086 35.922C82.5773 35.7176 83.2416 35.4621 83.8036 35.2066C84.3657 34.9511 84.8767 34.6445 85.3366 34.2868C85.7965 33.9291 86.1031 33.6736 86.3075 33.5715C86.4608 33.4182 86.563 33.2649 86.6141 33.2138V35.7687H91.7239ZM79.9713 31.6808C78.6427 31.6808 77.5696 31.3742 76.8032 30.761C75.9856 30.1479 75.6279 29.4325 75.6279 28.6149C75.6279 27.7462 75.8834 26.9798 76.4455 26.4177C77.0076 25.8556 77.774 25.4468 78.6938 25.2935L86.6141 24.0161V24.527C86.6141 26.8265 86.052 28.5638 84.8767 29.8413C83.7014 31.0676 82.0663 31.6808 79.9713 31.6808Z" fill="#323264"/>
<path d="M103 0H97.8901V35.7689H103V0Z" fill="#323264"/>
</svg>
