<svg width="70" height="5" viewBox="0 0 70 5" fill="none" xmlns="http://www.w3.org/2000/svg">
<path d="M0 0.329778H0.852878V3.32012H2.70078V4.01506H0V0.329778Z" fill="#323264"/>
<path d="M8.26752 3.22535H6.5565L6.23009 4.01506H5.35615L6.99873 0.329778H7.84108L9.48893 4.01506H8.59393L8.26752 3.22535ZM7.99902 2.5778L7.41464 1.16686L6.83026 2.5778H7.99902Z" fill="#323264"/>
<path d="M17.8731 0.329778L16.6675 4.01506H15.7515L14.9407 1.5196L14.1036 4.01506H13.1928L11.982 0.329778H12.8664L13.6982 2.92L14.5669 0.329778H15.3566L16.199 2.94106L17.0571 0.329778H17.8731Z" fill="#323264"/>
<path d="M26.9457 4.07823C26.5702 4.07823 26.2297 3.99751 25.9244 3.83606C25.6225 3.6711 25.3838 3.44472 25.2084 3.15691C25.0364 2.8656 24.9504 2.53743 24.9504 2.17242C24.9504 1.8074 25.0364 1.48099 25.2084 1.19319C25.3838 0.901873 25.6225 0.675492 25.9244 0.514042C26.2297 0.349082 26.5719 0.266602 26.951 0.266602C27.2704 0.266602 27.5582 0.322758 27.8144 0.435071C28.0741 0.547385 28.2917 0.708835 28.4672 0.919422L27.9197 1.42483C27.6705 1.13703 27.3616 0.993128 26.9931 0.993128C26.7649 0.993128 26.5614 1.04402 26.3824 1.1458C26.2034 1.24408 26.063 1.38271 25.9612 1.56171C25.8629 1.74071 25.8138 1.94428 25.8138 2.17242C25.8138 2.40055 25.8629 2.60412 25.9612 2.78312C26.063 2.96212 26.2034 3.10251 26.3824 3.20429C26.5614 3.30257 26.7649 3.35171 26.9931 3.35171C27.3616 3.35171 27.6705 3.20605 27.9197 2.91474L28.4672 3.42015C28.2917 3.63424 28.0741 3.79745 27.8144 3.90976C27.5547 4.02208 27.2651 4.07823 26.9457 4.07823Z" fill="#323264"/>
<path d="M33.3831 4.07823C33.0005 4.07823 32.6548 3.99575 32.3459 3.83079C32.0406 3.66583 31.8002 3.43945 31.6247 3.15165C31.4527 2.86034 31.3667 2.53393 31.3667 2.17242C31.3667 1.81091 31.4527 1.48625 31.6247 1.19845C31.8002 0.907138 32.0406 0.679002 32.3459 0.514042C32.6548 0.349082 33.0005 0.266602 33.3831 0.266602C33.7657 0.266602 34.1096 0.349082 34.415 0.514042C34.7203 0.679002 34.9607 0.907138 35.1362 1.19845C35.3117 1.48625 35.3995 1.81091 35.3995 2.17242C35.3995 2.53393 35.3117 2.86034 35.1362 3.15165C34.9607 3.43945 34.7203 3.66583 34.415 3.83079C34.1096 3.99575 33.7657 4.07823 33.3831 4.07823ZM33.3831 3.35171C33.6007 3.35171 33.7972 3.30257 33.9727 3.20429C34.1482 3.10251 34.2851 2.96212 34.3834 2.78312C34.4852 2.60412 34.5361 2.40055 34.5361 2.17242C34.5361 1.94428 34.4852 1.74071 34.3834 1.56171C34.2851 1.38271 34.1482 1.24408 33.9727 1.1458C33.7972 1.04402 33.6007 0.993128 33.3831 0.993128C33.1655 0.993128 32.9689 1.04402 32.7934 1.1458C32.618 1.24408 32.4793 1.38271 32.3775 1.56171C32.2793 1.74071 32.2301 1.94428 32.2301 2.17242C32.2301 2.40055 32.2793 2.60412 32.3775 2.78312C32.4793 2.96212 32.618 3.10251 32.7934 3.20429C32.9689 3.30257 33.1655 3.35171 33.3831 3.35171Z" fill="#323264"/>
<path d="M42.0264 4.01506L42.0211 1.80389L40.9366 3.62547H40.5523L39.473 1.85127V4.01506H38.6728V0.329778H39.3782L40.7576 2.61992L42.1159 0.329778H42.8161L42.8266 4.01506H42.0264Z" fill="#323264"/>
<path d="M47.9285 0.329778C48.2549 0.329778 48.5374 0.384179 48.7761 0.492983C49.0183 0.601786 49.2043 0.756217 49.3342 0.956275C49.464 1.15633 49.529 1.39324 49.529 1.66701C49.529 1.93726 49.464 2.17417 49.3342 2.37774C49.2043 2.5778 49.0183 2.73223 48.7761 2.84103C48.5374 2.94633 48.2549 2.99897 47.9285 2.99897H47.1862V4.01506H46.3333V0.329778H47.9285ZM47.8811 2.30403C48.1373 2.30403 48.3321 2.24963 48.4655 2.14083C48.5989 2.02852 48.6656 1.87057 48.6656 1.66701C48.6656 1.45993 48.5989 1.30199 48.4655 1.19319C48.3321 1.08087 48.1373 1.02472 47.8811 1.02472H47.1862V2.30403H47.8811Z" fill="#323264"/>
<path d="M55.0121 3.22535H53.3011L52.9747 4.01506H52.1008L53.7433 0.329778H54.5857L56.2335 4.01506H55.3385L55.0121 3.22535ZM54.7436 2.5778L54.1592 1.16686L53.5749 2.5778H54.7436Z" fill="#323264"/>
<path d="M62.6281 0.329778V4.01506H61.9279L60.0906 1.77757V4.01506H59.2482V0.329778H59.9537L61.7858 2.56727V0.329778H62.6281Z" fill="#323264"/>
<path d="M67.9013 2.70941V4.01506H67.0485V2.69888L65.6217 0.329778H66.5273L67.5117 1.96709L68.4963 0.329778H69.3333L67.9013 2.70941Z" fill="#323264"/>
</svg>
